<svg width="162px" height="49px" viewBox="0 0 162 49" version="1.1" xmlns="http://www.w3.org/2000/svg" xmlns:xlink="http://www.w3.org/1999/xlink">
    <!-- Generator: Sketch 59.1 (86144) - https://sketch.com -->
    <title>Logo lockup</title>
    <desc>Created with Sketch.</desc>
    <g id="Page-1" stroke="none" stroke-width="1" fill="none" fill-rule="evenodd">
        <g id="Logo-lockup" fill-rule="nonzero">
            <ellipse id="Oval" fill="#0097E6" cx="19.4811396" cy="22.6219472" rx="19.4811396" ry="19.5766851"></ellipse>
            <path d="M21.5126797,11.6975225 L20.7573346,14.7337214 C20.394769,14.6122734 20.0322033,14.5211875 19.5185686,14.5211875 C17.5546713,14.5211875 16.9201814,16.3429068 16.6482572,17.8306442 L16.2252639,20.2292413 L19.6394238,20.2292413 L19.1257892,23.0832682 L15.7720569,23.0832682 L14.3122678,31.4103592 C13.968375,33.3720302 12.2647306,34.8029958 10.2731445,34.8029958 L10.2731445,34.8029958 L10.2731445,34.8029958 L12.3276832,23.0832682 L9.57822696,23.0832682 L10.0616478,20.2292413 L12.7506764,20.2292413 L13.1736697,18.0128161 C13.7779458,14.7944453 15.3490636,11.4849886 19.7300653,11.4849886 C20.4854104,11.4849886 20.999045,11.5457126 21.5126797,11.6975225 Z" id="Path" stroke="#FFFFFF" stroke-width="0.796116505" fill="#FFFFFF"></path>
            <path d="M30.19633,11.6975225 L29.4409849,14.7337214 C29.0784193,14.6122734 28.7158536,14.5211875 28.202219,14.5211875 C26.2383217,14.5211875 25.6038318,16.3429068 25.3319075,17.8306442 L24.9089143,20.2292413 L28.3230742,20.2292413 L27.8094395,23.0832682 L24.4557072,23.0832682 L22.9959181,31.4103592 C22.6520254,33.3720302 20.948381,34.8029958 18.9567948,34.8029958 L18.9567948,34.8029958 L18.9567948,34.8029958 L21.0113335,23.0832682 L18.2618773,23.0832682 L18.7452982,20.2292413 L21.4343268,20.2292413 L21.85732,18.0128161 C22.4615961,14.7944453 24.0327139,11.4849886 28.4137156,11.4849886 C29.1690607,11.4849886 29.6826954,11.5457126 30.19633,11.6975225 Z" id="Path" stroke="#FFFFFF" stroke-width="0.796116505" fill="#FFFFFF"></path>
            <path d="M65.5107178,2.5871677 C66.2215629,2.5871677 66.7977718,2.00769782 66.7977718,1.29380137 C66.7977718,0.57946988 66.2219959,0 65.5107178,0 C64.7998727,0 64.2232309,0.57946988 64.2232309,1.29380137 C64.2232309,2.00726278 64.7998727,2.5871677 65.5107178,2.5871677 Z" id="Path" fill="#000000"></path>
            <path d="M57.829088,3.4585477 C56.5693077,3.4585477 55.5571542,4.22595376 55.184848,5.08210746 L55.1489161,5.08210746 L55.1489161,3.70869424 L53.125908,3.70869424 L53.125908,12.2719713 L55.2558459,12.2719713 L55.2558459,7.56225594 C55.2558459,6.42071768 55.8948273,5.24350635 57.2429222,5.24350635 C58.6109311,5.24350635 58.8416744,6.50946532 58.8416744,7.52658287 L58.8416744,12.2719713 L60.9716123,12.2719713 L60.9716123,6.92014067 C60.9716123,5.17129013 60.0486392,3.45898274 57.8286551,3.45898274 L57.829088,3.4585477 Z" id="Path" fill="#000000"></path>
            <polygon id="Path" fill="#000000" points="48.8123508 12.2715363 50.9422887 12.2715363 50.9422887 3.7082592 48.8123508 3.7082592 48.8123508 12.2715363"></polygon>
            <path d="M87.5508133,2.58760274 C88.2620914,2.58760274 88.8383002,2.00769782 88.8383002,1.29380137 C88.8383002,0.57946988 88.2625243,0 87.5512462,0 C86.8412669,0 86.2646252,0.57946988 86.2646252,1.29380137 C86.2646252,2.00726278 86.8404011,2.5871677 87.5516791,2.5871677 L87.5508133,2.58760274 Z" id="Path" fill="#000000"></path>
            <polygon id="Path" fill="#000000" points="84.0974566 3.70347379 84.0974566 5.60023706 86.4862773 5.60023706 86.4862773 12.2711013 88.617081 12.2711013 88.617081 5.60067209 91.0054687 5.60067209 91.0054687 3.70390882 84.0974566 3.70390882"></polygon>
            <polygon id="Path" fill="#000000" points="80.4748305 12.2711013 82.6047684 12.2711013 82.6047684 3.7082592 80.4748305 3.7082592 80.4748305 12.2715363"></polygon>
            <polygon id="Path" fill="#000000" points="62.0569282 5.60067209 64.4453159 5.60067209 64.4453159 12.2715363 66.5752539 12.2715363 66.5752539 5.60067209 68.9636416 5.60067209 68.9636416 3.70390882 62.0564953 3.70390882 62.0564953 5.60067209"></polygon>
            <path d="M76.1634378,8.41840964 C76.1634378,9.5599479 75.5240236,10.7371592 74.1754958,10.7371592 C72.8083527,10.7371592 72.5780423,9.47120026 72.5780423,8.45321263 L72.5780423,3.70869424 L70.4472386,3.70869424 L70.4472386,9.06052491 C70.4472386,10.8093754 71.3702117,12.5216828 73.5901958,12.5216828 C74.8499761,12.5216828 75.8621296,11.7547118 76.2344358,10.8981231 L76.2703677,10.8981231 L76.2703677,12.2719713 L78.2942416,12.2719713 L78.2942416,3.7082592 L76.1643037,3.7082592 L76.1643037,8.41840964 L76.1634378,8.41840964 Z" id="Path" fill="#000000"></path>
            <path d="M50.2323094,40.0234451 L50.2323094,29.7043569 L47.0806939,29.7043569 L47.0806939,26.3632693 L50.2323094,26.3632693 L50.2323094,23.8922566 C50.2323094,19.8899121 51.7908006,16.3400065 56.951138,16.3400065 C57.8515996,16.3400065 58.4403629,16.4096125 59.0637594,16.5836275 L58.7866943,20.1335331 C58.3364635,19.9943211 57.7823333,19.8899121 57.19357,19.8899121 C54.8038835,19.8899121 54.3882859,21.9780918 54.3882859,23.6486356 L54.3882859,26.3632693 L58.2325641,26.3632693 L58.2325641,29.7043569 L54.3882859,29.7043569 L54.3882859,40.0234451 L50.2323094,40.0234451 Z" id="Path" stroke="#000000" stroke-width="0.5" fill="#000000"></path>
            <path d="M69.4277256,22.3957278 C74.4495305,22.3957278 78.4669744,25.9108303 78.4669744,31.1660827 C78.4669744,36.4213351 74.4495305,40.0756496 69.4277256,40.0756496 C64.4059207,40.0756496 60.3884768,36.4213351 60.3884768,31.1660827 C60.3884768,25.9108303 64.4059207,22.3957278 69.4277256,22.3957278 Z M69.4277256,25.8064214 C66.1375776,25.8064214 64.6137196,28.555858 64.6137196,31.1660827 C64.6137196,33.7763074 66.1375776,36.59535 69.4277256,36.59535 C72.7178736,36.59535 74.2417317,33.7763074 74.2417317,31.1660827 C74.2417317,28.555858 72.7178736,25.8064214 69.4277256,25.8064214 Z" id="Combined-Shape" stroke="#000000" stroke-width="0.5" fill="#000000"></path>
            <path d="M81.2809168,39.8146272 L81.2809168,23.1091892 L85.2637275,23.1091892 L85.2637275,25.8934289 L85.3329938,25.8934289 C86.2334554,23.9792641 87.9997453,22.6219472 90.181633,22.6219472 C90.4933312,22.6219472 90.9089289,22.6567502 91.185994,22.7263562 L91.185994,26.5546858 C90.6318638,26.4154738 90.2855324,26.3806708 89.9045679,26.3806708 C86.1641891,26.3806708 85.4368932,29.6521524 85.4368932,30.8702572 L85.4368932,39.8146272 L81.2809168,39.8146272 Z" id="Path" stroke="#000000" stroke-width="0.5" fill="#000000"></path>
            <path d="M113.896674,22.3957278 C118.225816,22.3957278 120.026739,25.7368154 120.026739,29.147509 L120.026739,39.5884077 L115.870762,39.5884077 L115.870762,30.3308108 C115.870762,28.3470401 115.420532,25.8760274 112.75378,25.8760274 C110.156295,25.8760274 109.082668,28.3122371 109.082668,30.4700228 L109.082668,39.5884077 L104.926691,39.5884077 L104.926691,29.4955389 C104.926691,27.4421622 103.956963,25.8760274 101.844342,25.8760274 C99.350756,25.8760274 98.2078625,28.1730251 98.2078625,30.4004168 L98.2078625,39.5884077 L94.051886,39.5884077 L94.051886,22.8829697 L98.0000637,22.8829697 L98.0000637,25.5628004 L98.0693299,25.5628004 C98.7966258,23.9270596 100.562916,22.3957278 103.229667,22.3957278 C105.792519,22.3957278 107.489543,23.6834386 108.424638,25.5628004 C109.532898,23.5442266 111.403088,22.3957278 113.896674,22.3957278 Z" id="Path" stroke="#000000" stroke-width="0.5" fill="#000000"></path>
            <polygon id="Path" stroke="#000000" stroke-width="0.5" fill="#000000" points="137.144167 39.5884077 137.144167 13.2773429 141.300143 13.2773429 141.300143 39.5884077"></polygon>
            <path d="M125.663282,39.5884077 L125.663282,26.2240573 L122.511666,26.2240573 L122.511666,22.8829697 L125.663282,22.8829697 L125.663282,20.411957 C125.663282,16.4096125 127.221773,12.8597069 132.38211,12.8597069 C133.282572,12.8597069 133.871335,12.9293129 134.494732,13.1033279 L134.217667,16.6532335 C133.767436,16.5140215 133.213306,16.4096125 132.624542,16.4096125 C130.234856,16.4096125 129.819258,18.4977923 129.819258,20.168336 L129.819258,22.8829697 L133.663537,22.8829697 L133.663537,26.2240573 L129.819258,26.2240573 L129.819258,39.5884077 L125.663282,39.5884077 Z" id="Path" stroke="#000000" stroke-width="0.5" fill="#000000"></path>
            <path d="M150.746331,39.5884077 L143.611905,22.8829697 L148.218112,22.8829697 L152.858953,35.0292152 L152.928219,35.0292152 L157.049562,22.8829697 L161.378704,22.8829697 L153.516982,43.1731162 C152.339456,46.2009769 150.884864,47.9411267 147.213751,47.9411267 C146.521089,47.9411267 145.793793,47.8715207 145.066497,47.6975057 L145.412828,44.0779941 C145.966958,44.2520091 146.521089,44.3216151 146.971319,44.3216151 C148.737609,44.3216151 149.222473,43.4515402 149.915136,41.7113904 L150.746331,39.5884077 Z" id="Path" stroke="#000000" stroke-width="0.5" fill="#000000"></path>
        </g>
    </g>
</svg>
